<?xml version="1.0" encoding="UTF-8"?>
<svg xmlns="http://www.w3.org/2000/svg" viewBox="0 0 1024 1024" width="1024" height="1024">
  <defs>
    <linearGradient id="tile" x1="0" y1="0" x2="0" y2="1">
      <stop offset="0%" stop-color="#FFFFFF"></stop>
      <stop offset="55%" stop-color="#F4F3EF"></stop>
      <stop offset="100%" stop-color="#E7E6E1"></stop>
    </linearGradient>
    <linearGradient id="innerLight" x1="0" y1="0" x2="0" y2="1">
      <stop offset="0%" stop-color="#FFFFFF" stop-opacity="0.55"></stop>
      <stop offset="25%" stop-color="#FFFFFF" stop-opacity="0"></stop>
    </linearGradient>
    <linearGradient id="innerDark" x1="0" y1="0" x2="0" y2="1">
      <stop offset="75%" stop-color="#000000" stop-opacity="0"></stop>
      <stop offset="100%" stop-color="#000000" stop-opacity="0.18"></stop>
    </linearGradient>
    <clipPath id="clipTile"><path d="M 1024.00 512.00 L 1023.93 631.24 L 1023.72 669.32 L 1023.37 696.98 L 1022.88 719.47 L 1022.24 738.75 L 1021.47 755.78 L 1020.55 771.13 L 1019.49 785.16 L 1018.29 798.12 L 1016.95 810.17 L 1015.46 821.46 L 1013.83 832.08 L 1012.04 842.12 L 1010.12 851.63 L 1008.04 860.66 L 1005.81 869.27 L 1003.43 877.48 L 1000.90 885.33 L 998.22 892.83 L 995.37 900.02 L 992.37 906.92 L 989.21 913.53 L 985.88 919.87 L 982.38 925.96 L 978.72 931.81 L 974.88 937.42 L 970.87 942.81 L 966.67 947.99 L 962.29 952.96 L 957.72 957.72 L 952.96 962.29 L 947.99 966.67 L 942.81 970.87 L 937.42 974.88 L 931.81 978.72 L 925.96 982.38 L 919.87 985.88 L 913.53 989.21 L 906.92 992.37 L 900.02 995.37 L 892.83 998.22 L 885.33 1000.90 L 877.48 1003.43 L 869.27 1005.81 L 860.66 1008.04 L 851.63 1010.12 L 842.12 1012.04 L 832.08 1013.83 L 821.46 1015.46 L 810.17 1016.95 L 798.12 1018.29 L 785.16 1019.49 L 771.13 1020.55 L 755.78 1021.47 L 738.75 1022.24 L 719.47 1022.88 L 696.98 1023.37 L 669.32 1023.72 L 631.24 1023.93 L 512.00 1024.00 L 392.76 1023.93 L 354.68 1023.72 L 327.02 1023.37 L 304.53 1022.88 L 285.25 1022.24 L 268.22 1021.47 L 252.87 1020.55 L 238.84 1019.49 L 225.88 1018.29 L 213.83 1016.95 L 202.54 1015.46 L 191.92 1013.83 L 181.88 1012.04 L 172.37 1010.12 L 163.34 1008.04 L 154.73 1005.81 L 146.52 1003.43 L 138.67 1000.90 L 131.17 998.22 L 123.98 995.37 L 117.08 992.37 L 110.47 989.21 L 104.13 985.88 L 98.04 982.38 L 92.19 978.72 L 86.58 974.88 L 81.19 970.87 L 76.01 966.67 L 71.04 962.29 L 66.28 957.72 L 61.71 952.96 L 57.33 947.99 L 53.13 942.81 L 49.12 937.42 L 45.28 931.81 L 41.62 925.96 L 38.12 919.87 L 34.79 913.53 L 31.63 906.92 L 28.63 900.02 L 25.78 892.83 L 23.10 885.33 L 20.57 877.48 L 18.19 869.27 L 15.96 860.66 L 13.88 851.63 L 11.96 842.12 L 10.17 832.08 L 8.54 821.46 L 7.05 810.17 L 5.71 798.12 L 4.51 785.16 L 3.45 771.13 L 2.53 755.78 L 1.76 738.75 L 1.12 719.47 L 0.63 696.98 L 0.28 669.32 L 0.07 631.24 L 0.00 512.00 L 0.07 392.76 L 0.28 354.68 L 0.63 327.02 L 1.12 304.53 L 1.76 285.25 L 2.53 268.22 L 3.45 252.87 L 4.51 238.84 L 5.71 225.88 L 7.05 213.83 L 8.54 202.54 L 10.17 191.92 L 11.96 181.88 L 13.88 172.37 L 15.96 163.34 L 18.19 154.73 L 20.57 146.52 L 23.10 138.67 L 25.78 131.17 L 28.63 123.98 L 31.63 117.08 L 34.79 110.47 L 38.12 104.13 L 41.62 98.04 L 45.28 92.19 L 49.12 86.58 L 53.13 81.19 L 57.33 76.01 L 61.71 71.04 L 66.28 66.28 L 71.04 61.71 L 76.01 57.33 L 81.19 53.13 L 86.58 49.12 L 92.19 45.28 L 98.04 41.62 L 104.13 38.12 L 110.47 34.79 L 117.08 31.63 L 123.98 28.63 L 131.17 25.78 L 138.67 23.10 L 146.52 20.57 L 154.73 18.19 L 163.34 15.96 L 172.37 13.88 L 181.88 11.96 L 191.92 10.17 L 202.54 8.54 L 213.83 7.05 L 225.88 5.71 L 238.84 4.51 L 252.87 3.45 L 268.22 2.53 L 285.25 1.76 L 304.53 1.12 L 327.02 0.63 L 354.68 0.28 L 392.76 0.07 L 512.00 0.00 L 631.24 0.07 L 669.32 0.28 L 696.98 0.63 L 719.47 1.12 L 738.75 1.76 L 755.78 2.53 L 771.13 3.45 L 785.16 4.51 L 798.12 5.71 L 810.17 7.05 L 821.46 8.54 L 832.08 10.17 L 842.12 11.96 L 851.63 13.88 L 860.66 15.96 L 869.27 18.19 L 877.48 20.57 L 885.33 23.10 L 892.83 25.78 L 900.02 28.63 L 906.92 31.63 L 913.53 34.79 L 919.87 38.12 L 925.96 41.62 L 931.81 45.28 L 937.42 49.12 L 942.81 53.13 L 947.99 57.33 L 952.96 61.71 L 957.72 66.28 L 962.29 71.04 L 966.67 76.01 L 970.87 81.19 L 974.88 86.58 L 978.72 92.19 L 982.38 98.04 L 985.88 104.13 L 989.21 110.47 L 992.37 117.08 L 995.37 123.98 L 998.22 131.17 L 1000.90 138.67 L 1003.43 146.52 L 1005.81 154.73 L 1008.04 163.34 L 1010.12 172.37 L 1012.04 181.88 L 1013.83 191.92 L 1015.46 202.54 L 1016.95 213.83 L 1018.29 225.88 L 1019.49 238.84 L 1020.55 252.87 L 1021.47 268.22 L 1022.24 285.25 L 1022.88 304.53 L 1023.37 327.02 L 1023.72 354.68 L 1023.93 392.76 L 1024.00 512.00 Z"></path></clipPath>
  </defs>
  <path fill="url(#tile)" d="M 1024.00 512.00 L 1023.93 631.24 L 1023.72 669.32 L 1023.37 696.98 L 1022.88 719.47 L 1022.24 738.75 L 1021.47 755.78 L 1020.55 771.13 L 1019.49 785.16 L 1018.29 798.12 L 1016.95 810.17 L 1015.46 821.46 L 1013.83 832.08 L 1012.04 842.12 L 1010.12 851.63 L 1008.04 860.66 L 1005.81 869.27 L 1003.43 877.48 L 1000.90 885.33 L 998.22 892.83 L 995.37 900.02 L 992.37 906.92 L 989.21 913.53 L 985.88 919.87 L 982.38 925.96 L 978.72 931.81 L 974.88 937.42 L 970.87 942.81 L 966.67 947.99 L 962.29 952.96 L 957.72 957.72 L 952.96 962.29 L 947.99 966.67 L 942.81 970.87 L 937.42 974.88 L 931.81 978.72 L 925.96 982.38 L 919.87 985.88 L 913.53 989.21 L 906.92 992.37 L 900.02 995.37 L 892.83 998.22 L 885.33 1000.90 L 877.48 1003.43 L 869.27 1005.81 L 860.66 1008.04 L 851.63 1010.12 L 842.12 1012.04 L 832.08 1013.83 L 821.46 1015.46 L 810.17 1016.95 L 798.12 1018.29 L 785.16 1019.49 L 771.13 1020.55 L 755.78 1021.47 L 738.75 1022.24 L 719.47 1022.88 L 696.98 1023.37 L 669.32 1023.72 L 631.24 1023.93 L 512.00 1024.00 L 392.76 1023.93 L 354.68 1023.72 L 327.02 1023.37 L 304.53 1022.88 L 285.25 1022.24 L 268.22 1021.47 L 252.87 1020.55 L 238.84 1019.49 L 225.88 1018.29 L 213.83 1016.95 L 202.54 1015.46 L 191.92 1013.83 L 181.88 1012.04 L 172.37 1010.12 L 163.34 1008.04 L 154.73 1005.81 L 146.52 1003.43 L 138.67 1000.90 L 131.17 998.22 L 123.98 995.37 L 117.08 992.37 L 110.47 989.21 L 104.13 985.88 L 98.04 982.38 L 92.19 978.72 L 86.58 974.88 L 81.19 970.87 L 76.01 966.67 L 71.04 962.29 L 66.28 957.72 L 61.71 952.96 L 57.33 947.99 L 53.13 942.81 L 49.12 937.42 L 45.28 931.81 L 41.62 925.96 L 38.12 919.87 L 34.79 913.53 L 31.63 906.92 L 28.63 900.02 L 25.78 892.83 L 23.10 885.33 L 20.57 877.48 L 18.19 869.27 L 15.96 860.66 L 13.88 851.63 L 11.96 842.12 L 10.17 832.08 L 8.54 821.46 L 7.05 810.17 L 5.71 798.12 L 4.51 785.16 L 3.45 771.13 L 2.53 755.78 L 1.76 738.75 L 1.12 719.47 L 0.63 696.98 L 0.28 669.32 L 0.07 631.24 L 0.00 512.00 L 0.07 392.76 L 0.28 354.68 L 0.63 327.02 L 1.12 304.53 L 1.76 285.25 L 2.53 268.22 L 3.45 252.87 L 4.51 238.84 L 5.71 225.88 L 7.05 213.83 L 8.54 202.54 L 10.17 191.92 L 11.96 181.88 L 13.88 172.37 L 15.96 163.34 L 18.19 154.73 L 20.57 146.52 L 23.10 138.67 L 25.78 131.17 L 28.63 123.98 L 31.63 117.08 L 34.79 110.47 L 38.12 104.13 L 41.62 98.04 L 45.28 92.19 L 49.12 86.58 L 53.13 81.19 L 57.33 76.01 L 61.71 71.04 L 66.28 66.28 L 71.04 61.71 L 76.01 57.33 L 81.19 53.13 L 86.58 49.12 L 92.19 45.28 L 98.04 41.62 L 104.13 38.12 L 110.47 34.79 L 117.08 31.63 L 123.98 28.63 L 131.17 25.78 L 138.67 23.10 L 146.52 20.57 L 154.73 18.19 L 163.34 15.96 L 172.37 13.88 L 181.88 11.96 L 191.92 10.17 L 202.54 8.54 L 213.83 7.05 L 225.88 5.71 L 238.84 4.51 L 252.87 3.45 L 268.22 2.53 L 285.25 1.76 L 304.53 1.12 L 327.02 0.63 L 354.68 0.28 L 392.76 0.07 L 512.00 0.00 L 631.24 0.07 L 669.32 0.28 L 696.98 0.63 L 719.47 1.12 L 738.75 1.76 L 755.78 2.53 L 771.13 3.45 L 785.16 4.51 L 798.12 5.71 L 810.17 7.05 L 821.46 8.54 L 832.08 10.17 L 842.12 11.96 L 851.63 13.88 L 860.66 15.96 L 869.27 18.19 L 877.48 20.57 L 885.33 23.10 L 892.83 25.78 L 900.02 28.63 L 906.92 31.63 L 913.53 34.79 L 919.87 38.12 L 925.96 41.62 L 931.81 45.28 L 937.42 49.12 L 942.81 53.13 L 947.99 57.33 L 952.96 61.71 L 957.72 66.28 L 962.29 71.04 L 966.67 76.01 L 970.87 81.19 L 974.88 86.58 L 978.72 92.19 L 982.38 98.04 L 985.88 104.13 L 989.21 110.47 L 992.37 117.08 L 995.37 123.98 L 998.22 131.17 L 1000.90 138.67 L 1003.43 146.52 L 1005.81 154.73 L 1008.04 163.34 L 1010.12 172.37 L 1012.04 181.88 L 1013.83 191.92 L 1015.46 202.54 L 1016.95 213.83 L 1018.29 225.88 L 1019.49 238.84 L 1020.55 252.87 L 1021.47 268.22 L 1022.24 285.25 L 1022.88 304.53 L 1023.37 327.02 L 1023.72 354.68 L 1023.93 392.76 L 1024.00 512.00 Z"></path>
  <g clip-path="url(#clipTile)">
    <path fill="none" stroke="#111214" stroke-width="28" stroke-linecap="round" stroke-linejoin="round" d="M 152.00 512.00 L 155.60 514.16 L 159.20 516.42 L 162.80 518.77 L 166.40 521.22 L 170.00 523.75 L 173.60 526.37 L 177.20 529.06 L 180.80 531.83 L 184.40 534.66 L 188.00 537.56 L 191.60 540.50 L 195.20 543.49 L 198.80 546.52 L 202.40 549.57 L 206.00 552.64 L 209.60 555.72 L 213.20 558.80 L 216.80 561.87 L 220.40 564.92 L 224.00 567.94 L 227.60 570.92 L 231.20 573.84 L 234.80 576.69 L 238.40 579.47 L 242.00 582.16 L 245.60 584.76 L 249.20 587.23 L 252.80 589.59 L 256.40 591.81 L 260.00 593.89 L 263.60 595.81 L 267.20 597.55 L 270.80 599.12 L 274.40 600.51 L 278.00 601.69 L 281.60 602.66 L 285.20 603.41 L 288.80 603.94 L 292.40 604.23 L 296.00 604.28 L 299.60 604.08 L 303.20 603.63 L 306.80 602.92 L 310.40 601.94 L 314.00 600.69 L 317.60 599.18 L 321.20 597.39 L 324.80 595.33 L 328.40 592.99 L 332.00 590.38 L 335.60 587.50 L 339.20 584.35 L 342.80 580.94 L 346.40 577.27 L 350.00 573.34 L 353.60 569.17 L 357.20 564.76 L 360.80 560.12 L 364.40 555.26 L 368.00 550.19 L 371.60 544.93 L 375.20 539.48 L 378.80 533.85 L 382.40 528.07 L 386.00 522.15 L 389.60 516.10 L 393.20 509.93 L 396.80 503.68 L 400.40 497.35 L 404.00 490.96 L 407.60 484.52 L 411.20 478.07 L 414.80 471.62 L 418.40 465.18 L 422.00 458.78 L 425.60 452.43 L 429.20 446.16 L 432.80 439.99 L 436.40 433.93 L 440.00 428.00 L 443.60 422.22 L 447.20 416.62 L 450.80 411.20 L 454.40 405.99 L 458.00 401.00 L 461.60 396.25 L 465.20 391.76 L 468.80 387.54 L 472.40 383.60 L 476.00 379.96 L 479.60 376.62 L 483.20 373.61 L 486.80 370.93 L 490.40 368.58 L 494.00 366.59 L 497.60 364.94 L 501.20 363.66 L 504.80 362.74 L 508.40 362.18 L 512.00 362.00 L 515.60 362.18 L 519.20 362.74 L 522.80 363.66 L 526.40 364.94 L 530.00 366.59 L 533.60 368.58 L 537.20 370.93 L 540.80 373.61 L 544.40 376.62 L 548.00 379.96 L 551.60 383.60 L 555.20 387.54 L 558.80 391.76 L 562.40 396.25 L 566.00 401.00 L 569.60 405.99 L 573.20 411.20 L 576.80 416.62 L 580.40 422.22 L 584.00 428.00 L 587.60 433.93 L 591.20 439.99 L 594.80 446.16 L 598.40 452.43 L 602.00 458.78 L 605.60 465.18 L 609.20 471.62 L 612.80 478.07 L 616.40 484.52 L 620.00 490.96 L 623.60 497.35 L 627.20 503.68 L 630.80 509.93 L 634.40 516.10 L 638.00 522.15 L 641.60 528.07 L 645.20 533.85 L 648.80 539.48 L 652.40 544.93 L 656.00 550.19 L 659.60 555.26 L 663.20 560.12 L 666.80 564.76 L 670.40 569.17 L 674.00 573.34 L 677.60 577.27 L 681.20 580.94 L 684.80 584.35 L 688.40 587.50 L 692.00 590.38 L 695.60 592.99 L 699.20 595.33 L 702.80 597.39 L 706.40 599.18 L 710.00 600.69 L 713.60 601.94 L 717.20 602.92 L 720.80 603.63 L 724.40 604.08 L 728.00 604.28 L 731.60 604.23 L 735.20 603.94 L 738.80 603.41 L 742.40 602.66 L 746.00 601.69 L 749.60 600.51 L 753.20 599.12 L 756.80 597.55 L 760.40 595.81 L 764.00 593.89 L 767.60 591.81 L 771.20 589.59 L 774.80 587.23 L 778.40 584.76 L 782.00 582.16 L 785.60 579.47 L 789.20 576.69 L 792.80 573.84 L 796.40 570.92 L 800.00 567.94 L 803.60 564.92 L 807.20 561.87 L 810.80 558.80 L 814.40 555.72 L 818.00 552.64 L 821.60 549.57 L 825.20 546.52 L 828.80 543.49 L 832.40 540.50 L 836.00 537.56 L 839.60 534.66 L 843.20 531.83 L 846.80 529.06 L 850.40 526.37 L 854.00 523.75 L 857.60 521.22 L 861.20 518.77 L 864.80 516.42 L 868.40 514.16 L 872.00 512.00"></path>
    <circle cx="152" cy="512" r="16" fill="#111214"></circle>
    <circle cx="872" cy="512" r="16" fill="#3E7BD1"></circle>
  </g>
  <path fill="none" stroke="url(#innerLight)" stroke-width="3" d="M 1024.00 512.00 L 1023.93 631.24 L 1023.72 669.32 L 1023.37 696.98 L 1022.88 719.47 L 1022.24 738.75 L 1021.47 755.78 L 1020.55 771.13 L 1019.49 785.16 L 1018.29 798.12 L 1016.95 810.17 L 1015.46 821.46 L 1013.83 832.08 L 1012.04 842.12 L 1010.12 851.63 L 1008.04 860.66 L 1005.81 869.27 L 1003.43 877.48 L 1000.90 885.33 L 998.22 892.83 L 995.37 900.02 L 992.37 906.92 L 989.21 913.53 L 985.88 919.87 L 982.38 925.96 L 978.72 931.81 L 974.88 937.42 L 970.87 942.81 L 966.67 947.99 L 962.29 952.96 L 957.72 957.72 L 952.96 962.29 L 947.99 966.67 L 942.81 970.87 L 937.42 974.88 L 931.81 978.72 L 925.96 982.38 L 919.87 985.88 L 913.53 989.21 L 906.92 992.37 L 900.02 995.37 L 892.83 998.22 L 885.33 1000.90 L 877.48 1003.43 L 869.27 1005.81 L 860.66 1008.04 L 851.63 1010.12 L 842.12 1012.04 L 832.08 1013.83 L 821.46 1015.46 L 810.17 1016.95 L 798.12 1018.29 L 785.16 1019.49 L 771.13 1020.55 L 755.78 1021.47 L 738.75 1022.24 L 719.47 1022.88 L 696.98 1023.37 L 669.32 1023.72 L 631.24 1023.93 L 512.00 1024.00 L 392.76 1023.93 L 354.68 1023.72 L 327.02 1023.37 L 304.53 1022.88 L 285.25 1022.24 L 268.22 1021.47 L 252.87 1020.55 L 238.84 1019.49 L 225.88 1018.29 L 213.83 1016.95 L 202.54 1015.46 L 191.92 1013.83 L 181.88 1012.04 L 172.37 1010.12 L 163.34 1008.04 L 154.73 1005.81 L 146.52 1003.43 L 138.67 1000.90 L 131.17 998.22 L 123.98 995.37 L 117.08 992.37 L 110.47 989.21 L 104.13 985.88 L 98.04 982.38 L 92.19 978.72 L 86.58 974.88 L 81.19 970.87 L 76.01 966.67 L 71.04 962.29 L 66.28 957.72 L 61.71 952.96 L 57.33 947.99 L 53.13 942.81 L 49.12 937.42 L 45.28 931.81 L 41.62 925.96 L 38.12 919.87 L 34.79 913.53 L 31.63 906.92 L 28.63 900.02 L 25.78 892.83 L 23.10 885.33 L 20.57 877.48 L 18.19 869.27 L 15.96 860.66 L 13.88 851.63 L 11.96 842.12 L 10.17 832.08 L 8.54 821.46 L 7.05 810.17 L 5.71 798.12 L 4.51 785.16 L 3.45 771.13 L 2.53 755.78 L 1.76 738.75 L 1.12 719.47 L 0.63 696.98 L 0.28 669.32 L 0.07 631.24 L 0.00 512.00 L 0.07 392.76 L 0.28 354.68 L 0.63 327.02 L 1.12 304.53 L 1.76 285.25 L 2.53 268.22 L 3.45 252.87 L 4.51 238.84 L 5.71 225.88 L 7.05 213.83 L 8.54 202.54 L 10.17 191.92 L 11.96 181.88 L 13.88 172.37 L 15.96 163.34 L 18.19 154.73 L 20.57 146.52 L 23.10 138.67 L 25.78 131.17 L 28.63 123.98 L 31.63 117.08 L 34.79 110.47 L 38.12 104.13 L 41.62 98.04 L 45.28 92.19 L 49.12 86.58 L 53.13 81.19 L 57.33 76.01 L 61.71 71.04 L 66.28 66.28 L 71.04 61.71 L 76.01 57.33 L 81.19 53.13 L 86.58 49.12 L 92.19 45.28 L 98.04 41.62 L 104.13 38.12 L 110.47 34.79 L 117.08 31.63 L 123.98 28.63 L 131.17 25.78 L 138.67 23.10 L 146.52 20.57 L 154.73 18.19 L 163.34 15.96 L 172.37 13.88 L 181.88 11.96 L 191.92 10.17 L 202.54 8.54 L 213.83 7.05 L 225.88 5.71 L 238.84 4.51 L 252.87 3.45 L 268.22 2.53 L 285.25 1.76 L 304.53 1.12 L 327.02 0.63 L 354.68 0.28 L 392.76 0.07 L 512.00 0.00 L 631.24 0.07 L 669.32 0.28 L 696.98 0.63 L 719.47 1.12 L 738.75 1.76 L 755.78 2.53 L 771.13 3.45 L 785.16 4.51 L 798.12 5.71 L 810.17 7.05 L 821.46 8.54 L 832.08 10.17 L 842.12 11.96 L 851.63 13.88 L 860.66 15.96 L 869.27 18.19 L 877.48 20.57 L 885.33 23.10 L 892.83 25.78 L 900.02 28.63 L 906.92 31.63 L 913.53 34.79 L 919.87 38.12 L 925.96 41.62 L 931.81 45.28 L 937.42 49.12 L 942.81 53.13 L 947.99 57.33 L 952.96 61.71 L 957.72 66.28 L 962.29 71.04 L 966.67 76.01 L 970.87 81.19 L 974.88 86.58 L 978.72 92.19 L 982.38 98.04 L 985.88 104.13 L 989.21 110.47 L 992.37 117.08 L 995.37 123.98 L 998.22 131.17 L 1000.90 138.67 L 1003.43 146.52 L 1005.81 154.73 L 1008.04 163.34 L 1010.12 172.37 L 1012.04 181.88 L 1013.83 191.92 L 1015.46 202.54 L 1016.95 213.83 L 1018.29 225.88 L 1019.49 238.84 L 1020.55 252.87 L 1021.47 268.22 L 1022.24 285.25 L 1022.88 304.53 L 1023.37 327.02 L 1023.72 354.68 L 1023.93 392.76 L 1024.00 512.00 Z"></path>
  <path fill="none" stroke="url(#innerDark)" stroke-width="3" d="M 1024.00 512.00 L 1023.93 631.24 L 1023.72 669.32 L 1023.37 696.98 L 1022.88 719.47 L 1022.24 738.75 L 1021.47 755.78 L 1020.55 771.13 L 1019.49 785.16 L 1018.29 798.12 L 1016.95 810.17 L 1015.46 821.46 L 1013.83 832.08 L 1012.04 842.12 L 1010.12 851.63 L 1008.04 860.66 L 1005.81 869.27 L 1003.43 877.48 L 1000.90 885.33 L 998.22 892.83 L 995.37 900.02 L 992.37 906.92 L 989.21 913.53 L 985.88 919.87 L 982.38 925.96 L 978.72 931.81 L 974.88 937.42 L 970.87 942.81 L 966.67 947.99 L 962.29 952.96 L 957.72 957.72 L 952.96 962.29 L 947.99 966.67 L 942.81 970.87 L 937.42 974.88 L 931.81 978.72 L 925.96 982.38 L 919.87 985.88 L 913.53 989.21 L 906.92 992.37 L 900.02 995.37 L 892.83 998.22 L 885.33 1000.90 L 877.48 1003.43 L 869.27 1005.81 L 860.66 1008.04 L 851.63 1010.12 L 842.12 1012.04 L 832.08 1013.83 L 821.46 1015.46 L 810.17 1016.95 L 798.12 1018.29 L 785.16 1019.49 L 771.13 1020.55 L 755.78 1021.47 L 738.75 1022.24 L 719.47 1022.88 L 696.98 1023.37 L 669.32 1023.72 L 631.24 1023.93 L 512.00 1024.00 L 392.76 1023.93 L 354.68 1023.72 L 327.02 1023.37 L 304.53 1022.88 L 285.25 1022.24 L 268.22 1021.47 L 252.87 1020.55 L 238.84 1019.49 L 225.88 1018.29 L 213.83 1016.95 L 202.54 1015.46 L 191.92 1013.83 L 181.88 1012.04 L 172.37 1010.12 L 163.34 1008.04 L 154.73 1005.81 L 146.52 1003.43 L 138.67 1000.90 L 131.17 998.22 L 123.98 995.37 L 117.08 992.37 L 110.47 989.21 L 104.13 985.88 L 98.04 982.38 L 92.19 978.72 L 86.58 974.88 L 81.19 970.87 L 76.01 966.67 L 71.04 962.29 L 66.28 957.72 L 61.71 952.96 L 57.33 947.99 L 53.13 942.81 L 49.12 937.42 L 45.28 931.81 L 41.62 925.96 L 38.12 919.87 L 34.79 913.53 L 31.63 906.92 L 28.63 900.02 L 25.78 892.83 L 23.10 885.33 L 20.57 877.48 L 18.19 869.27 L 15.96 860.66 L 13.88 851.63 L 11.96 842.12 L 10.17 832.08 L 8.54 821.46 L 7.05 810.17 L 5.71 798.12 L 4.51 785.16 L 3.45 771.13 L 2.53 755.78 L 1.76 738.75 L 1.12 719.47 L 0.63 696.98 L 0.28 669.32 L 0.07 631.24 L 0.00 512.00 L 0.07 392.76 L 0.28 354.68 L 0.63 327.02 L 1.12 304.53 L 1.76 285.25 L 2.53 268.22 L 3.45 252.87 L 4.51 238.84 L 5.71 225.88 L 7.05 213.83 L 8.54 202.54 L 10.17 191.92 L 11.96 181.88 L 13.88 172.37 L 15.96 163.34 L 18.19 154.73 L 20.57 146.52 L 23.10 138.67 L 25.78 131.17 L 28.63 123.98 L 31.63 117.08 L 34.79 110.47 L 38.12 104.13 L 41.62 98.04 L 45.28 92.19 L 49.12 86.58 L 53.13 81.19 L 57.33 76.01 L 61.71 71.04 L 66.28 66.28 L 71.04 61.71 L 76.01 57.33 L 81.19 53.13 L 86.58 49.12 L 92.19 45.28 L 98.04 41.62 L 104.13 38.12 L 110.47 34.79 L 117.08 31.63 L 123.98 28.63 L 131.17 25.78 L 138.67 23.10 L 146.52 20.57 L 154.73 18.19 L 163.34 15.96 L 172.37 13.88 L 181.88 11.96 L 191.92 10.17 L 202.54 8.54 L 213.83 7.05 L 225.88 5.71 L 238.84 4.51 L 252.87 3.45 L 268.22 2.53 L 285.25 1.76 L 304.53 1.12 L 327.02 0.63 L 354.68 0.28 L 392.76 0.07 L 512.00 0.00 L 631.24 0.07 L 669.32 0.28 L 696.98 0.63 L 719.47 1.12 L 738.75 1.76 L 755.78 2.53 L 771.13 3.45 L 785.16 4.51 L 798.12 5.71 L 810.17 7.05 L 821.46 8.54 L 832.08 10.17 L 842.12 11.96 L 851.63 13.88 L 860.66 15.96 L 869.27 18.19 L 877.48 20.57 L 885.33 23.10 L 892.83 25.78 L 900.02 28.63 L 906.92 31.63 L 913.53 34.79 L 919.87 38.12 L 925.96 41.62 L 931.81 45.28 L 937.42 49.12 L 942.81 53.13 L 947.99 57.33 L 952.96 61.71 L 957.72 66.28 L 962.29 71.04 L 966.67 76.01 L 970.87 81.19 L 974.88 86.58 L 978.72 92.19 L 982.38 98.04 L 985.88 104.13 L 989.21 110.47 L 992.37 117.08 L 995.37 123.98 L 998.22 131.17 L 1000.90 138.67 L 1003.43 146.52 L 1005.81 154.73 L 1008.04 163.34 L 1010.12 172.37 L 1012.04 181.88 L 1013.83 191.92 L 1015.46 202.54 L 1016.95 213.83 L 1018.29 225.88 L 1019.49 238.84 L 1020.55 252.87 L 1021.47 268.22 L 1022.24 285.25 L 1022.88 304.53 L 1023.37 327.02 L 1023.72 354.68 L 1023.93 392.76 L 1024.00 512.00 Z"></path>
  <path fill="none" stroke="rgba(0,0,0,0.08)" stroke-width="1" d="M 1024.00 512.00 L 1023.93 631.24 L 1023.72 669.32 L 1023.37 696.98 L 1022.88 719.47 L 1022.24 738.75 L 1021.47 755.78 L 1020.55 771.13 L 1019.49 785.16 L 1018.29 798.12 L 1016.95 810.17 L 1015.46 821.46 L 1013.83 832.08 L 1012.04 842.12 L 1010.12 851.63 L 1008.04 860.66 L 1005.81 869.27 L 1003.43 877.48 L 1000.90 885.33 L 998.22 892.83 L 995.37 900.02 L 992.37 906.92 L 989.21 913.53 L 985.88 919.87 L 982.38 925.96 L 978.72 931.81 L 974.88 937.42 L 970.87 942.81 L 966.67 947.99 L 962.29 952.96 L 957.72 957.72 L 952.96 962.29 L 947.99 966.67 L 942.81 970.87 L 937.42 974.88 L 931.81 978.72 L 925.96 982.38 L 919.87 985.88 L 913.53 989.21 L 906.92 992.37 L 900.02 995.37 L 892.83 998.22 L 885.33 1000.90 L 877.48 1003.43 L 869.27 1005.81 L 860.66 1008.04 L 851.63 1010.12 L 842.12 1012.04 L 832.08 1013.83 L 821.46 1015.46 L 810.17 1016.95 L 798.12 1018.29 L 785.16 1019.49 L 771.13 1020.55 L 755.78 1021.47 L 738.75 1022.24 L 719.47 1022.88 L 696.98 1023.37 L 669.32 1023.72 L 631.24 1023.93 L 512.00 1024.00 L 392.76 1023.93 L 354.68 1023.72 L 327.02 1023.37 L 304.53 1022.88 L 285.25 1022.24 L 268.22 1021.47 L 252.87 1020.55 L 238.84 1019.49 L 225.88 1018.29 L 213.83 1016.95 L 202.54 1015.46 L 191.92 1013.83 L 181.88 1012.04 L 172.37 1010.12 L 163.34 1008.04 L 154.73 1005.81 L 146.52 1003.43 L 138.67 1000.90 L 131.17 998.22 L 123.98 995.37 L 117.08 992.37 L 110.47 989.21 L 104.13 985.88 L 98.04 982.38 L 92.19 978.72 L 86.58 974.88 L 81.19 970.87 L 76.01 966.67 L 71.04 962.29 L 66.28 957.72 L 61.71 952.96 L 57.33 947.99 L 53.13 942.81 L 49.12 937.42 L 45.28 931.81 L 41.62 925.96 L 38.12 919.87 L 34.79 913.53 L 31.63 906.92 L 28.63 900.02 L 25.78 892.83 L 23.10 885.33 L 20.57 877.48 L 18.19 869.27 L 15.96 860.66 L 13.88 851.63 L 11.96 842.12 L 10.17 832.08 L 8.54 821.46 L 7.05 810.17 L 5.71 798.12 L 4.51 785.16 L 3.45 771.13 L 2.53 755.78 L 1.76 738.75 L 1.12 719.47 L 0.63 696.98 L 0.28 669.32 L 0.07 631.24 L 0.00 512.00 L 0.07 392.76 L 0.28 354.68 L 0.63 327.02 L 1.12 304.53 L 1.76 285.25 L 2.53 268.22 L 3.45 252.87 L 4.51 238.84 L 5.71 225.88 L 7.05 213.83 L 8.54 202.54 L 10.17 191.92 L 11.96 181.88 L 13.88 172.37 L 15.96 163.34 L 18.19 154.73 L 20.57 146.52 L 23.10 138.67 L 25.78 131.17 L 28.63 123.98 L 31.63 117.08 L 34.79 110.47 L 38.12 104.13 L 41.62 98.04 L 45.28 92.19 L 49.12 86.58 L 53.13 81.19 L 57.33 76.01 L 61.71 71.04 L 66.28 66.28 L 71.04 61.71 L 76.01 57.33 L 81.19 53.13 L 86.58 49.12 L 92.19 45.28 L 98.04 41.62 L 104.13 38.12 L 110.47 34.79 L 117.08 31.63 L 123.98 28.63 L 131.17 25.78 L 138.67 23.10 L 146.52 20.57 L 154.73 18.19 L 163.34 15.96 L 172.37 13.88 L 181.88 11.96 L 191.92 10.17 L 202.54 8.54 L 213.83 7.05 L 225.88 5.71 L 238.84 4.51 L 252.87 3.45 L 268.22 2.53 L 285.25 1.76 L 304.53 1.12 L 327.02 0.63 L 354.68 0.28 L 392.76 0.07 L 512.00 0.00 L 631.24 0.07 L 669.32 0.28 L 696.98 0.63 L 719.47 1.12 L 738.75 1.76 L 755.78 2.53 L 771.13 3.45 L 785.16 4.51 L 798.12 5.71 L 810.17 7.05 L 821.46 8.54 L 832.08 10.17 L 842.12 11.96 L 851.63 13.88 L 860.66 15.96 L 869.27 18.19 L 877.48 20.57 L 885.33 23.10 L 892.83 25.78 L 900.02 28.63 L 906.92 31.63 L 913.53 34.79 L 919.87 38.12 L 925.96 41.62 L 931.81 45.28 L 937.42 49.12 L 942.81 53.13 L 947.99 57.33 L 952.96 61.71 L 957.72 66.28 L 962.29 71.04 L 966.67 76.01 L 970.87 81.19 L 974.88 86.58 L 978.72 92.19 L 982.38 98.04 L 985.88 104.13 L 989.21 110.47 L 992.37 117.08 L 995.37 123.98 L 998.22 131.17 L 1000.90 138.67 L 1003.43 146.52 L 1005.81 154.73 L 1008.04 163.34 L 1010.12 172.37 L 1012.04 181.88 L 1013.83 191.92 L 1015.46 202.54 L 1016.95 213.83 L 1018.29 225.88 L 1019.49 238.84 L 1020.55 252.87 L 1021.47 268.22 L 1022.24 285.25 L 1022.88 304.53 L 1023.37 327.02 L 1023.72 354.68 L 1023.93 392.76 L 1024.00 512.00 Z"></path>
</svg>